<svg xmlns="http://www.w3.org/2000/svg" viewBox="0 0 136.09 155.75"><defs><style>.cls-1{fill:#dc2626;}</style></defs><g id="Capa_2" data-name="Capa 2"><g id="Capa_1-2" data-name="Capa 1"><path class="cls-1" d="M9.64,29.12c-1.83,0-3.31.05-4.79,0C1.81,29,0,27.15,0,24.29a4.57,4.57,0,0,1,4.92-4.77q13.39-.07,26.78,0a3.08,3.08,0,0,0,3.07-1.68c2-3.37,4.2-6.62,6.26-9.95A15.68,15.68,0,0,1,55.38,0Q68,.11,80.54,0c6-.06,10.71,2.14,13.9,7.42,2.21,3.64,4.71,7.1,7,10.7a2.73,2.73,0,0,0,2.63,1.41c8.85-.05,17.71,0,26.57,0,2.94,0,4.7,1.19,5.28,3.47a4.69,4.69,0,0,1-4.4,6.12c-1.61.1-3.23,0-5.16,0v2.72q0,49.2,0,98.41c0,7.2-2,13.64-7.26,18.73a24.29,24.29,0,0,1-17.51,6.77q-33.08,0-66.14,0c-15.66,0-25.78-10.08-25.79-25.76q0-48.9,0-97.81Zm107.12.13H19.22V40.66q0,44.73,0,89.45c0,9.45,6.09,15.95,15.15,16q33.87.12,67.74,0a14.42,14.42,0,0,0,8.69-2.93c4.38-3.26,6-7.83,6-13.1V29.25ZM91,19.41a91.39,91.39,0,0,0-5.19-7.85,5.65,5.65,0,0,0-3.82-1.82c-9.24-.15-18.49-.14-27.74,0a5.18,5.18,0,0,0-3.58,1.46c-2,2.49-3.61,5.28-5.56,8.23Z"/><path class="cls-1" d="M43.56,87.62c0,11.23,0,22.46,0,33.69,0,4-3.22,6.35-6.62,4.73A6.71,6.71,0,0,1,34.32,123,7.42,7.42,0,0,1,34,119.8q0-32.16,0-64.32a16.93,16.93,0,0,1,.23-3,4.49,4.49,0,0,1,4.62-3.73,4.56,4.56,0,0,1,4.62,4,17.89,17.89,0,0,1,.09,2.43Q43.58,71.39,43.56,87.62Z"/><path class="cls-1" d="M72.78,87.62c0,11.23,0,22.46,0,33.69,0,4-3.21,6.35-6.61,4.73A6.73,6.73,0,0,1,63.53,123a7.42,7.42,0,0,1-.32-3.19q0-32.16,0-64.32a16.93,16.93,0,0,1,.24-3,4.48,4.48,0,0,1,4.61-3.73,4.57,4.57,0,0,1,4.63,4,19.67,19.67,0,0,1,.09,2.43Z"/><path class="cls-1" d="M102,87.74q0,16.64,0,33.28c0,3.15-1.1,4.72-3.6,5.35a4.59,4.59,0,0,1-5.75-3.66,15.35,15.35,0,0,1-.21-2.62q0-32.46,0-64.93a15.09,15.09,0,0,1,.19-2.42,4.69,4.69,0,0,1,9.32.51c.12,3.11.06,6.22.06,9.33Q102,75.16,102,87.74Z"/></g></g></svg>