<svg xmlns="http://www.w3.org/2000/svg" viewBox="0 0 95.99 128.07"><defs><style>.cls-1{fill:#334155;}</style></defs><g id="Capa_2" data-name="Capa 2"><g id="Capa_1-2" data-name="Capa 1"><path class="cls-1" d="M0,63.94Q0,40.6,0,17.24C0,12,1.62,7.42,5.71,3.91A16.29,16.29,0,0,1,16.61,0Q35.56,0,54.48,0a12.8,12.8,0,0,1,9.43,3.89Q78,18,92.1,32.1A12.7,12.7,0,0,1,96,41.51c0,23.36,0,46.71,0,70.06,0,9.48-7,16.43-16.46,16.46q-31.44.08-62.88,0C6.86,128,0,121,0,111Q0,87.46,0,63.94ZM88.09,48h-2q-12.6,0-25.19,0a13.26,13.26,0,0,1-7.85-2.33c-3.75-2.67-5-6.53-5-10.89,0-8.23,0-16.46,0-24.69V7.93h-31c-6.22,0-9.16,3-9.16,9.24q0,46.86,0,93.73c0,6.25,3,9.22,9.17,9.23h45c6,0,12,0,18,0,3.45,0,6.05-1.54,7.33-4.75a12.69,12.69,0,0,0,.64-4.57q.06-30.36,0-60.71ZM56.5,7.92,56,8.34c0,9.21-.06,18.43,0,27.64C56,38.71,57.64,40,60.43,40q13.17,0,26.32,0c.36,0,.72,0,1.08-.07l.29-.45C77.58,29,67.08,18.42,56.5,7.92Z"/></g></g></svg>