<svg xmlns="http://www.w3.org/2000/svg" viewBox="0 0 137.82 131.9"><g id="Capa_2" data-name="Capa 2"><g id="Capa_1-2" data-name="Capa 1"><path d="M13.68,66,31.46,85.59Q47.24,103,63,120.43a14.83,14.83,0,0,1,2,2.81,5.66,5.66,0,0,1-1.11,7,5.76,5.76,0,0,1-7.36.54,14.07,14.07,0,0,1-2.37-2.2Q28.38,99.92,2.56,71.2c-3.45-3.84-3.41-7.17.09-11L54.16,3.28C56.19,1,58.3-.85,61.71.4,65.3,1.7,66.87,5.26,65,8.6a20.56,20.56,0,0,1-2.86,3.75q-23,25.39-46,50.75C15.41,64,14.66,64.84,13.68,66Z"/><path d="M85.68,66,108.37,91q13.35,14.73,26.67,29.46a14.09,14.09,0,0,1,2.17,3,5.84,5.84,0,0,1-8.45,7.42,13.91,13.91,0,0,1-2.57-2.34Q100.76,100.2,75.37,71.77c-4.55-5.08-4.51-7.42,0-12.42Q100.82,31.3,126.21,3.21c2-2.26,4.19-4,7.58-2.79,3.57,1.33,5.09,4.9,3.22,8.25a21.55,21.55,0,0,1-2.88,3.74q-23,25.38-46,50.74C87.37,64,86.62,64.88,85.68,66Z"/></g></g></svg>