<svg xmlns="http://www.w3.org/2000/svg" viewBox="0 0 148.15 148.18"><defs><style>.cls-1{fill:#4ade80;}</style></defs><g id="Capa_2" data-name="Capa 2"><g id="Capa_1-2" data-name="Capa 1"><path class="cls-1" d="M74,148.17H27.65c-6.83,0-13.1-1.77-18.39-6.24-6.53-5.5-9.18-12.82-9.2-21.12Q0,74,.07,27.26C.11,13.5,8,3.58,20.76.72a32.15,32.15,0,0,1,7-.68C50.48,0,73.21,0,95.93,0a27.89,27.89,0,0,1,20.95,8.68c7.49,7.69,15.13,15.24,22.76,22.79a27.37,27.37,0,0,1,8.51,20.34c-.07,23.09,0,46.18,0,69.28,0,13.54-7.79,23.44-20.58,26.35a33.55,33.55,0,0,1-7.22.7C104.87,148.2,89.42,148.17,74,148.17ZM21.21,11.79A5.55,5.55,0,0,0,20.1,12a18.21,18.21,0,0,0-2,1c-5.48,3.38-7.66,8.55-7.66,14.73q-.06,46.34,0,92.66c0,10.6,6.83,17.33,17.45,17.33h92.44c10.59,0,17.33-6.6,17.35-17.14,0-22.72,0-45.45,0-68.18A17.88,17.88,0,0,0,132.16,39c-7.84-7.75-15.61-15.59-23.42-23.37-.8-.79-1.71-1.46-3-2.53V16c0,8.46,0,16.92,0,25.38,0,7.47-4,11.41-11.45,11.44-6.47,0-12.94,0-19.41,0H32.76c-4.49,0-8.41-1.33-10.35-5.68a16.51,16.51,0,0,1-1.15-6.42c-.12-8.82-.05-17.65-.05-26.48ZM31.77,42.25H95.22V10.61H31.77Z"/><path class="cls-1" d="M100.45,95.48A26.36,26.36,0,1,1,74.22,68.86,26.09,26.09,0,0,1,100.45,95.48ZM90,95.21A16.12,16.12,0,0,0,74.11,79.34c-8.52,0-16,7.43-16,15.89a16.3,16.3,0,0,0,16.07,16A16.09,16.09,0,0,0,90,95.21Z"/></g></g></svg>