<?xml version="1.0" encoding="utf-8"?>
<!-- Generator: Adobe Illustrator 26.2.1, SVG Export Plug-In . SVG Version: 6.00 Build 0)  -->
<svg version="1.1" id="Capa_1" xmlns="http://www.w3.org/2000/svg" xmlns:xlink="http://www.w3.org/1999/xlink" x="0px" y="0px"
	 viewBox="0 0 1280 1024" style="enable-background:new 0 0 1280 1024;" xml:space="preserve">
<style type="text/css">
	.st0{fill:#FFFFFF;}
</style>
<g>
	<path class="st0" d="M666.2,533.5c0-8.6,0-17.1,0-25.7c0-8.5,0-17,0-25.9c-1.1,0-2.1,0-3.1,0c-12.6,0-25.2,0.1-37.7,0
		c-7.6-0.1-14-2.9-17.2-10.2c-1.3-3-1.9-6.4-2-9.7c-0.2-12.2-0.1-24.5-0.1-36.7c0-1,0-2,0-3.3c-1.1,0-1.9,0-2.8,0
		c-14.7,0-29.3,0-44,0c-8.8,0-13.4,4.6-13.4,13.5c0,47.1,0,94.2,0,141.2c0,9,4.6,13.4,13.6,13.4c22.7,0,45.3,0,68,0c1,0,2,0,2.8,0
		c0,3.9,0,7.7,0,11.7c-0.2,0-0.9,0.1-1.5,0.1c-23.2,0-46.5,0-69.7,0c-12.3,0-21.9-7.6-24.4-19.2c-0.5-2.2-0.6-4.5-0.6-6.7
		c0-46.7,0-93.3,0-140c0-11.6,5.4-20.2,15.5-24.2c3-1.1,6.3-1.7,9.5-1.7c18.7-0.2,37.5-0.1,56.2-0.1c5.8,0,10.7,2,14.8,6.1
		c13.9,14,27.8,27.8,41.7,41.7c4,4,6.1,8.7,6.1,14.5c-0.1,16.1,0,32.2-0.1,48.2c0,1.1-0.6,2.4-1.3,3.2c-3.2,3.4-6.5,6.7-9.8,10
		C666.6,533.7,666.4,533.6,666.2,533.5z M618.8,422c-0.3,0.2-0.5,0.4-0.8,0.6c0,13.8-0.1,27.6,0.1,41.4c0,4.1,2.5,6.1,6.7,6.1
		c13.1,0,26.3,0,39.4,0c0.5,0,1.1-0.1,1.6-0.1c0.1-0.2,0.3-0.5,0.4-0.7C650.4,453.5,634.8,437.6,618.8,422z"/>
	<path class="st0" d="M748.9,518.6c0,6.4-2.1,10.8-5.8,14.5c-19.4,19.2-38.7,38.4-58.2,57.4c-2.1,2-5.1,3.6-7.9,4.4
		c-8.7,2.4-17.6,4.4-26.4,6.5c-5.7,1.3-9.1-2.1-7.7-7.9c2.1-8.8,4.3-17.6,6.4-26.4c0.8-3.4,2.5-6.3,5-8.8
		c18.8-18.9,37.6-37.8,56.4-56.7c8.2-8.2,19-8.3,27.3-0.2c2.4,2.4,4.8,4.8,7.1,7.4C747.7,511.8,748.8,515.6,748.9,518.6z M656,587.6
		c0.9-0.1,1.4-0.1,1.9-0.2c5.1-1.2,10.2-2.3,15.2-3.7c1.7-0.5,3.4-1.4,4.7-2.6c8.1-7.8,16.1-15.7,24-23.7
		c5.2-5.2,10.4-10.5,15.2-15.5c-4.9-4.9-9.8-9.9-14.8-14.9c0.1,0-0.2,0.1-0.3,0.3c-13.1,13.1-26.3,26.2-39.4,39.4
		c-0.7,0.7-1.3,1.6-1.6,2.5C659.2,575.2,657.7,581.2,656,587.6z M726.1,533.1c2.9-2.9,6-5.8,8.9-8.9c2.6-2.8,2.5-6.2,0-9.2
		c-1.7-2-3.6-4-5.5-5.8c-2.6-2.6-6.8-2.9-9.5-0.5c-3.2,3-6.1,6.3-9,9.3C716.1,523.1,721,528,726.1,533.1z"/>
	<path class="st0" d="M656,587.6c1.7-6.4,3.2-12.4,4.9-18.4c0.3-0.9,0.9-1.8,1.6-2.5c13.1-13.1,26.2-26.3,39.4-39.4
		c0.2-0.2,0.4-0.3,0.3-0.3c5,5,10,10,14.8,14.9c-4.8,4.9-10,10.3-15.2,15.5c-8,7.9-15.9,15.9-24,23.7c-1.2,1.2-3,2.1-4.7,2.6
		c-5,1.4-10.2,2.5-15.2,3.7C657.4,587.5,656.9,587.5,656,587.6z"/>
</g>
</svg>
