<svg xmlns="http://www.w3.org/2000/svg" viewBox="0 0 405.15 72.84"><defs><style>.cls-1{fill:#7c3aed;}</style></defs><g id="Capa_2" data-name="Capa 2"><g id="Capa_1-2" data-name="Capa 1"><path class="cls-1" d="M405.15,1.25V20.39H381.93v51H359.77V20.56H336.39V1.25Z"/><path class="cls-1" d="M248.36,1.25V20.52H225.22V71.38H203.1V20.59H179.84V1.25Z"/><path class="cls-1" d="M173.35,1c-.83,1.45-1.38,2.51-2,3.5C164.9,14.19,158.55,24,152,33.6c-1.38,2-1.27,3.37.05,5.33,6.5,9.68,12.84,19.46,19.23,29.21.63,1,1.19,2,2.08,3.45-8.8,0-17.08.07-25.35-.09-.85,0-1.91-1.2-2.47-2.09-3.65-5.85-7.19-11.76-11-18-3.62,6-7.14,11.61-10.45,17.34-1.19,2.06-2.48,3-5,2.94-7.58-.19-15.17-.06-23.25-.06.72-1.29,1.17-2.2,1.73-3C104,58.72,110.46,48.85,117,39.09c1.39-2.06,1.55-3.48.08-5.64-6.46-9.42-12.69-19-19-28.51-.71-1.08-1.41-2.17-2.59-4h9.3c4.88,0,9.76-.18,14.62.1a6.16,6.16,0,0,1,4.17,2.32c3.77,5.58,7.23,11.39,11,17.47,3.69-6,7.25-11.62,10.61-17.35A4.49,4.49,0,0,1,149.78.9C157.38,1,165,1,173.35,1Z"/><path class="cls-1" d="M89.19,1V71.37H67.59V1.12C68.9,1.05,70.07,1,71.22,1,77.14.94,83.06,1,89.19,1Z"/><path class="cls-1" d="M57,1V20H22.38v9.84H50.25V49h-28V71.55H0V.8L52.44,1Z"/><path class="cls-1" d="M308.47,2.79a46.58,46.58,0,0,0-28.41-1.07c-13.58,3.74-22.42,12.34-25.35,26.18-3,14,.1,26.63,11.43,36.13,9.15,7.69,20,9.57,31.78,8.55,19.53-1.68,33.26-16.32,33.31-36C331.26,20.89,322.53,7.75,308.47,2.79Zm-.38,41.28a2.29,2.29,0,0,1-1.14,2L293.52,53.8a2.29,2.29,0,0,1-2.29,0L277.8,46.05a2.29,2.29,0,0,1-1.14-2V28.56a2.28,2.28,0,0,1,1.14-2l13.43-7.76a2.34,2.34,0,0,1,2.29,0L307,26.58a2.28,2.28,0,0,1,1.14,2Z"/></g></g></svg>